# AST/ASF file generated using VICON BodyLanguage
# -----------------------------------------------
:version 1.10
:name VICON
:units
  mass 1.0
  length 0.45
  angle deg
:documentation
   .ast/.asf automatically generated from VICON data using
   VICON BodyBuilder and BodyLanguage model FoxedUp or BRILLIANT.MOD
:root
   order TX TY TZ RX RY RZ
   axis XYZ
   position 0 0 0  
   orientation 0 0 0 
:bonedata
  begin
     id 1 
     name lhipjoint
     direction 0.693937 -0.600361 0.397515 
     length 2.37164 
     axis 0 0 0  XYZ
  end
  begin
     id 2 
     name lfemur
     direction 0.34202 -0.939693 0  
     length 6.18497  
     axis 0 0 20  XYZ
    dof rx ry rz
    limits (-160.0 20.0)
           (-70.0 70.0)
           (-60.0 70.0)
  end
  begin
     id 3 
     name ltibia
     direction 0.34202 -0.939693 0   
     length 6.91601   
     axis 0 0 20   XYZ
    dof rx
    limits (-10.0 170.0)
  end
  begin
     id 4 
     name lfoot
     direction 0.0978718 -0.2689 0.958182   
     length 1.81453   
     axis -90 7.62852e-016 20   XYZ
    dof rx rz
    limits (-45.0 90.0)
           (-70.0 20.0)
  end
  begin
     id 5 
     name ltoes
     direction 1.53569e-011 -4.21951e-011 1   
     length 0.912052   
     axis -90 7.62852e-016 20   XYZ
    dof rx
    limits (-90.0 20.0)
  end
  begin
     id 6 
     name rhipjoint
     direction -0.643996 -0.637876 0.422354   
     length 2.23216  
     axis 0 0 0  XYZ 
  end
  begin
     id 7 
     name rfemur
     direction -0.34202 -0.939693 0   
     length 6.15404   
     axis 0 0 -20   XYZ
    dof rx ry rz
    limits (-160.0 20.0)
           (-70.0 70.0)
           (-70.0 60.0)
  end
  begin
     id 8 
     name rtibia
     direction -0.34202 -0.939693 0   
     length 6.86744   
     axis 0 0 -20   XYZ
    dof rx
    limits (-10.0 170.0)
 end
 begin
     id 9 
     name rfoot
     direction -0.118701 -0.326127 0.937844   
     length 1.9243  
     axis -90 -7.62852e-016 -20   XYZ
    dof rx rz
    limits (-45.0 90.0)
           (-20.0 70.0)
  end
  begin
     id 10 
     name rtoes
     direction -1.5356e-011 -4.2181e-011 1   
     length 0.958865   
     axis -90 -7.62852e-016 -20   XYZ
    dof rx
    limits (-90.0 20.0)
  end
  begin
     id 11 
     name lowerback
     direction 0.0310826 0.968686 -0.246334   
     length 2.00021   
     axis 0 0 0   XYZ
    dof rx ry rz
    limits (-20.0 45.0)
           (-30.0 30.0)
           (-30.0 30.0)
  end
  begin
     id 12 
     name upperback
     direction -0.0152834 0.999474 -0.0286152   
     length 2.03728   
     axis 0 0 0   XYZ
    dof rx ry rz
    limits (-20.0 45.0)
           (-30.0 30.0)
           (-30.0 30.0)
  end
  begin
     id 13 
     name thorax
     direction -0.0323701 0.996236 0.0804149   
     length 2.16   
     axis 0 0 0   XYZ
    dof rx ry rz
    limits (-20.0 45.0)
           (-30.0 30.0)
           (-30.0 30.0)
  end
  begin
     id 14 
     name lowerneck
     direction 0.0307935 0.982251 0.185027   
     length 1.43558   
     axis 0 0 0   XYZ
    dof rx ry rz
    limits (-20.0 45.0)
           (-30.0 30.0)
           (-30.0 30.0)
  end
  begin
     id 15 
     name upperneck
     direction -0.0927153 0.994775 0.0427454   
     length 1.44603   
     axis 0 0 0   XYZ
    dof rx ry rz
    limits (-20.0 45.0)
           (-30.0 30.0)
           (-30.0 30.0)
  end
  begin
     id 16
     name head
     direction -0.0341265 0.999406 -0.00472033  
     length 1.45931  
     axis 0 0 0   XYZ
    dof rx ry rz
    limits (-20.0 45.0)
           (-30.0 30.0)
           (-30.0 30.0)
  end
  begin
     id 17 
     name lclavicle
     direction 0.820755 0.555306 -0.134151  
     length 2.66075  
     axis 0 0 0   XYZ
    dof ry rz
    limits (-20.0 10.0)
           (0.0 20.0)
  end
  begin
     id 18 
     name lhumerus
     direction 1 -4.48971e-011 5.24853e-027   
     length 5.0546   
     axis -180 -30 -90   XYZ
    dof rx ry rz
    limits (-60.0 90.0)
           (-90.0 90.0)
           (-90.0 90.0)
  end
  begin
     id 19
     name lradius
     direction 1 -4.48971e-011 2.76575e-028   
     length 3.39013   
     axis -180 -30 -90   XYZ
    dof rx
    limits (-10.0 170.0)
  end
  begin
     id 20
     name lwrist
     direction 1 -4.48939e-011 -2.27826e-027   
     length 1.69507   
     axis 2.17013e-015 90 90   XYZ
    dof ry
    limits (-180.0 0.0)
 end
  begin
     id 21 
     name lhand
     direction 1 -4.49009e-011 -4.55652e-027   
     length 0.572425   
     axis 2.90745e-015 90 90   XYZ
    dof rx rz
    limits (-90.0 90.0)
           (-45.0 45.0)
  end
  begin
     id 22 
     name lfingers
     direction 1 -4.48955e-011 -9.11303e-027   
     length 0.461504   
     axis 5.81489e-015 90 90   XYZ
    dof rx
    limits (0.0 90.0)
  end
  begin
     id 23
     name lthumb
     direction 0.707107 -6.34929e-011 0.707107   
     length 0.66263   
     axis -90 45 2.85299e-015   XYZ
    dof rx rz
    limits (-45.0 45.0)
           (-45.0 45.0)
  end
  begin
     id 24 
     name rclavicle
     direction -0.754477 0.632921 -0.173712   
     length 2.73081  
     axis 0 0 0   XYZ 
    dof ry rz
    limits (-10.0 20.0)
           (-20.0 0.0)
  end
  begin
     id 25 
     name rhumerus
     direction -1 -4.48969e-011 5.1496e-027  
     length 5.0701   
     axis -180 30 90   XYZ
    dof rx ry rz
    limits (-90.0 60.0)
           (-90.0 90.0)
           (-90.0 90.0)
  end
  begin
     id 26 
     name rradius
     direction -1 -4.48967e-011 -7.15624e-028   
     length 3.14957   
     axis -180 30 90   XYZ
    dof rx
    limits (-10.0 170.0)
  end
  begin
     id 27 
     name rwrist
     direction -1 -4.48938e-011 -2.27826e-027   
     length 1.57479   
     axis 2.17013e-015 -90 -90   XYZ
    dof ry
    limits (-180.0 0.0)
  end
  begin
     id 28
     name rhand
     direction -1 -4.49008e-011 -4.55652e-027   
     length 0.718191   
     axis 2.90745e-015 -90 -90   XYZ
    dof rx rz
    limits (-90.0 90.0)
           (-45.0 45.0)
  end
  begin
     id 29
     name rfingers
     direction -1 -4.48953e-011 -9.11303e-027   
     length 0.579024   
     axis 5.81489e-015 -90 -90   XYZ
    dof rx
    limits (0.0 90.0)
  end
  begin
     id 30
     name rthumb
     direction -0.707107 -6.34937e-011 0.707107   
     length 0.831366   
     axis -90 -45 -2.85299e-015   XYZ
    dof rx rz
    limits (-45.0 45.0)
           (-45.0 45.0)
  end
:hierarchy
  begin
    root lhipjoint rhipjoint lowerback
    lhipjoint lfemur
    lfemur ltibia
    ltibia lfoot
    lfoot ltoes
    rhipjoint rfemur
    rfemur rtibia
    rtibia rfoot
    rfoot rtoes
    lowerback upperback
    upperback thorax
    thorax lowerneck lclavicle rclavicle
    lowerneck upperneck
    upperneck head
    lclavicle lhumerus
    lhumerus lradius
    lradius lwrist
    lwrist lhand lthumb
    lhand lfingers
    rclavicle rhumerus
    rhumerus rradius
    rradius rwrist
    rwrist rhand rthumb
    rhand rfingers
  end

#!OML:ASF H:\Male1\Project 1\Capture day 1\Session 1\Male1.ASF
:FULLY-SPECIFIED
:DEGREES
65
root 16.7803 14.7325 0.454534 -219.523 83.5274 -210.598
lowerback 11.9456 -2.73407 -5.73853
upperback 6.51023 -3.88592 -0.194557
thorax 0.532949 -1.96362 3.43895
lowerneck -9.37232 5.23538 6.91528
upperneck 4.07516 6.86187 -9.70087
head 3.3211 3.14993 -3.6648
rclavicle -3.05383e-014 6.4605e-015
rhumerus -77.1496 12.4875 -88.0938
rradius 98.5006
rwrist -38.3283
rhand -36.8222 17.2407
rfingers 7.12502
rthumb -9.90311 -12.5064
lclavicle -3.05383e-014 6.4605e-015
lhumerus -53.3097 -2.25901 90.671
lradius 120.266
lwrist 22.522
lhand -18.5921 -4.30559
lfingers 7.12502
lthumb 7.69888 25.5343
rfemur -26.1446 13.9244 14.7027
rtibia 31.8054
rfoot -20.4805 -18.9852
rtoes -39.4406
lfemur 0.896138 -5.48926 -25.4984
ltibia 73.3441
lfoot -16.2931 12.9891
ltoes -3.88523
66
root 17.4415 14.582 0.486054 -210.004 83.5123 -200.533
lowerback 12.5953 -2.67761 -4.57325
upperback 6.39353 -3.72378 0.118588
thorax -0.0229986 -1.84071 3.1394
lowerneck -9.13094 4.91788 6.37548
upperneck 4.23292 6.48469 -9.21638
head 3.262 2.9765 -3.45964
rclavicle -5.67282e-014 5.36719e-015
rhumerus -76.4828 13.0867 -88.6057
rradius 97.8673
rwrist -38.1956
rhand -37.7926 15.2544
rfingers 7.12502
rthumb -10.8392 -14.4459
lclavicle -5.67282e-014 5.36719e-015
lhumerus -54.2738 -1.66194 90.466
lradius 118.786
lwrist 23.5296
lhand -17.6085 -2.66886
lfingers 7.12502
lthumb 8.64812 27.134
rfemur -25.2365 11.2643 16.8526
rtibia 34.7044
rfoot -12.2103 -17.1979
rtoes -42.0102
lfemur -2.5414 -5.02463 -23.0429
ltibia 77.1773
lfoot -17.2156 12.3927
ltoes -4.03327
67
root 18.0478 14.3922 0.498666 -199.843 83.8845 -190.089
lowerback 13.3388 -2.44361 -3.11243
upperback 6.29555 -3.26669 0.520948
thorax -0.635397 -1.56863 2.72853
lowerneck -8.53312 4.6054 5.81238
upperneck 3.38154 6.06595 -8.70893
head 2.84187 2.80674 -3.26006
rclavicle 3.84151e-014 5.96354e-016
rhumerus -75.0536 14.0249 -89.2206
rradius 96.9399
rwrist -38.6373
rhand -36.765 16.3903
rfingers 7.12502
rthumb -9.84794 -13.3594
lclavicle 3.84151e-014 5.96354e-016
lhumerus -55.0303 -0.954784 90.2344
lradius 116.848
lwrist 22.8534
lhand -17.4844 -0.447342
lfingers 7.12502
lthumb 8.76794 29.3505
rfemur -26.3291 5.01247 19.6036
rtibia 38.7757
rfoot -4.49556 -14.0827
rtoes -34.2525
lfemur -7.05203 -4.59843 -20.7934
ltibia 80.499
lfoot -17.7069 12.4208
ltoes -2.94497
68
root 18.6072 14.2873 0.477192 -141.41 84.504 -131.385
lowerback 14.1756 -2.23974 2.49083
upperback 6.21211 -2.22838 2.10595
thorax -1.40656 -0.947698 1.12598
lowerneck -8.05967 4.49596 6.25279
upperneck 2.74535 5.93688 -9.87027
head 2.61871 2.73741 -3.70681
rclavicle -8.99501e-015 -4.37326e-015
rhumerus -73.1296 16.582 -89.9099
rradius 95.3707
rwrist -39.2503
rhand -36.5339 15.1374
rfingers 7.12502
rthumb -9.62497 -14.6227
lclavicle -8.99501e-015 -4.37326e-015
lhumerus -55.9787 0.378823 90.0341
lradius 114.925
lwrist 21.1164
lhand -19.508 0.300003
lfingers 7.12502
lthumb 6.81482 30.1703
rfemur -26.0047 7.43351 26.2078
rtibia 42.8236
rfoot -9.41737 -12.7255
rtoes -31.9938
lfemur -11.6447 -2.61926 -13.6715
ltibia 83.1456
lfoot -19.2093 11.4625
ltoes -3.02353
69
root 19.1542 14.2523 0.468209 -124.486 84.7727 -113.891
lowerback 15.3058 -1.93902 3.14224
upperback 6.50277 -1.65289 2.33258
thorax -1.71191 -0.636281 0.936018
lowerneck -8.12188 4.67221 6.82522
upperneck 2.49076 6.16113 -10.8357
head 2.62418 2.83236 -4.08207
rclavicle -1.86361e-014 1.8487e-014
rhumerus -70.6024 19.4771 -90.2708
rradius 94.719
rwrist -38.8036
rhand -35.7607 15.9342
rfingers 7.12502
rthumb -8.87885 -13.859
lclavicle -1.86361e-014 1.8487e-014
lhumerus -57.1152 2.29667 89.2726
lradius 113.299
lwrist 19.6258
lhand -21.4039 1.62765
lfingers 7.12502
lthumb 4.98432 31.549
rfemur -25.273 5.36706 28.0172
rtibia 46.6957
rfoot -10.3797 -11.6381
rtoes -30.105
lfemur -15.2914 -1.74982 -12.6599
ltibia 83.9408
lfoot -20.3218 11.0661
ltoes -3.29201
70
root 19.6979 14.2263 0.507379 -138.156 85.6599 -127.018
lowerback 15.9768 -1.91441 1.34625
upperback 6.90406 -1.85586 1.76897
thorax -1.60773 -0.749424 1.40314
lowerneck -7.76481 4.80403 6.88776
upperneck 1.90447 6.26776 -10.2993
head 2.383 2.91847 -3.93405
rclavicle 2.06239e-014 -3.37934e-015
rhumerus -68.389 21.9733 -90.8773
rradius 93.8557
rwrist -35.9355
rhand -35.6701 14.5731
rfingers 7.12502
rthumb -8.79148 -15.2238
lclavicle 2.06239e-014 -3.37934e-015
lhumerus -58.4651 3.40098 88.0226
lradius 112.07
lwrist 19.7687
lhand -23.5529 3.79565
lfingers 7.12502
lthumb 2.90911 33.7556
rfemur -23.9826 2.64126 27.0941
rtibia 49.5572
rfoot -13.6777 -9.51622
rtoes -31.8227
lfemur -19.0894 -3.00245 -14.6426
ltibia 83.588
lfoot -19.4908 11.7858
ltoes -1.98276
71
root 20.2332 14.1999 0.54312 -147.561 85.6844 -135.892
lowerback 16.4198 -1.90625 0.274273
upperback 7.36592 -1.97073 1.49951
thorax -1.32153 -0.809203 1.75021
lowerneck -7.76314 4.70578 7.33208
upperneck 1.74301 6.08142 -10.366
head 2.33429 2.82912 -4.03909
rclavicle 7.64079e-015 -1.76918e-014
rhumerus -67.1772 23.6693 -90.9196
rradius 94.4277
rwrist -34.2044
rhand -34.4908 15.1498
rfingers 7.12502
rthumb -7.65334 -14.6917
lclavicle 7.64079e-015 -1.76918e-014
lhumerus -59.7889 3.62434 87.1843
lradius 111.91
lwrist 23.1701
lhand -25.791 5.01651
lfingers 7.12502
lthumb 0.747603 34.9949
rfemur -22.0122 3.64098 27.1794
rtibia 51.5826
rfoot -16.2101 -11.221
rtoes -30.79
lfemur -22.7262 -4.20674 -15.6761
ltibia 82.2506
lfoot -18.7405 12.4395
ltoes -3.01999
72
root 20.7597 14.1707 0.568041 -147.92 85.0219 -135.755
lowerback 16.799 -1.80181 0.327493
upperback 7.76814 -1.77994 1.54903
thorax -1.09813 -0.69729 1.74437
lowerneck -8.5974 4.45063 6.86005
upperneck 2.87007 5.75529 -9.44393
head 2.73092 2.64782 -3.67566
rclavicle 5.51006e-015 -1.55549e-014
rhumerus -67.0596 23.7803 -90.3578
rradius 96.2948
rwrist -34.2786
rhand -34.1358 15.5312
rfingers 7.12502
rthumb -7.31061 -14.3225
lclavicle 5.51006e-015 -1.55549e-014
lhumerus -60.7975 2.92801 86.6122
lradius 111.928
lwrist 26.414
lhand -26.5854 6.63744
lfingers 7.12502
lthumb -0.0196861 36.6172
rfemur -19.9111 3.96314 28.3419
rtibia 53.0386
rfoot -18.1039 -12.7958
rtoes -29.501
lfemur -26.2493 -5.27305 -15.6984
ltibia 80.0926
lfoot -19.2012 12.8604
ltoes -6.73295
73
root 21.2749 14.2472 0.57129 -142.903 84.022 -130.997
lowerback 16.6723 -1.77271 1.36187
upperback 7.86163 -1.57506 1.67464
thorax -0.965017 -0.56646 1.25299
lowerneck -8.50916 4.15351 6.65457
upperneck 2.80936 5.3523 -9.04652
head 2.64722 2.4601 -3.5473
rclavicle 8.44835e-015 -1.18774e-014
rhumerus -67.3418 23.491 -89.7694
rradius 98.0031
rwrist -33.8477
rhand -33.5094 16.2656
rfingers 7.12502
rthumb -6.70598 -13.6082
lclavicle 8.44835e-015 -1.18774e-014
lhumerus -61.7313 1.78943 86.0622
lradius 111.822
lwrist 27.872
lhand -26.5748 6.45972
lfingers 7.12502
lthumb -0.00943799 36.4395
rfemur -18.2807 3.50037 29.9426
rtibia 53.9575
rfoot -19.6868 -14.043
rtoes -30.141
lfemur -29.6804 -6.03616 -15.1041
ltibia 76.3892
lfoot -19.6643 12.898
ltoes -8.32424
74
root 21.7813 14.3393 0.57438 -141.793 83.4539 -130.057
lowerback 16.5526 -1.7536 1.45122
upperback 8.12988 -1.51938 1.77227
thorax -0.61777 -0.527562 1.28994
lowerneck -8.28995 4.00494 6.6763
upperneck 2.31924 5.13722 -9.10151
head 2.45075 2.36411 -3.58698
rclavicle -9.80257e-015 1.5207e-014
rhumerus -67.7754 23.6804 -89.2017
rradius 99.3361
rwrist -33.3211
rhand -33.0434 17.6246
rfingers 7.12502
rthumb -6.2561 -12.2631
lclavicle -9.80257e-015 1.5207e-014
lhumerus -62.4039 1.17542 85.4348
lradius 111.617
lwrist 27.3099
lhand -25.5542 5.02273
lfingers 7.12502
lthumb 0.976288 35.0002
rfemur -16.7754 2.77108 30.9588
rtibia 55.223
rfoot -18.6804 -14.7088
rtoes -29.6141
lfemur -32.0208 -6.35713 -15.0851
ltibia 71.2807
lfoot -19.6444 12.4711
ltoes -7.98474
75
root 22.2749 14.4739 0.582119 -141.643 83.3828 -129.928
lowerback 16.7792 -1.69226 1.17647
upperback 8.47547 -1.45016 1.6482
thorax -0.365206 -0.484615 1.30498
lowerneck -8.32918 4.00073 6.66236
upperneck 1.79323 5.0991 -9.04497
head 2.29541 2.35361 -3.57264
rclavicle -4.47266e-016 1.45113e-014
rhumerus -68.32 24.0468 -88.9113
rradius 100.16
rwrist -32.6385
rhand -33.6229 18.7872
rfingers 7.12502
rthumb -6.81551 -11.0831
lclavicle -4.47266e-016 1.45113e-014
lhumerus -62.9576 0.882282 84.413
lradius 111.286
lwrist 25.8114
lhand -23.2141 1.42864
lfingers 7.12502
lthumb 3.23635 31.3838
rfemur -16.2882 2.1168 31.2509
rtibia 57.4569
rfoot -15.9925 -14.1009
rtoes -28.1396
lfemur -32.9382 -6.23786 -15.4235
ltibia 64.6548
lfoot -18.4981 11.702
ltoes -9.13212
76
root 22.7524 14.6567 0.593715 -141.777 83.8703 -129.893
lowerback 17.3742 -1.57576 0.537268
upperback 8.94797 -1.34712 1.2921
thorax -0.163808 -0.426162 1.28276
lowerneck -8.78769 4.17886 6.61101
upperneck 1.38713 5.29282 -8.89973
head 2.25777 2.44995 -3.50474
rclavicle 3.08116e-015 1.61016e-014
rhumerus -68.5317 23.8402 -88.5491
rradius 100.957
rwrist -32.072
rhand -33.9255 19.2795
rfingers 7.12502
rthumb -7.10765 -10.5811
lclavicle 3.08116e-015 1.61016e-014
lhumerus -63.2231 1.11079 82.9104
lradius 110.687
lwrist 24.4509
lhand -21.7446 0.624144
lfingers 7.12502
lthumb 4.65538 30.553
rfemur -16.8062 1.39239 30.7917
rtibia 60.684
rfoot -10.1376 -12.8415
rtoes -32.5875
lfemur -32.5222 -6.16279 -15.9346
ltibia 56.9734
lfoot -17.5481 10.5194
ltoes -8.22164
77
root 23.2225 14.8065 0.599153 -144.217 84.883 -131.889
lowerback 18.38 -1.38809 -0.572301
upperback 9.44351 -1.21943 0.727063
thorax -0.136836 -0.362828 1.3075
lowerneck -8.92418 4.3946 6.76126
upperneck 0.585648 5.52318 -8.71344
head 2.28684 2.59197 -3.84349
rclavicle 1.68967e-015 -9.14409e-015
rhumerus -68.9024 23.8347 -88.4148
rradius 101.394
rwrist -32.4384
rhand -34.0006 19.581
rfingers 7.12502
rthumb -7.18014 -10.2772
lclavicle 1.68967e-015 -9.14409e-015
lhumerus -63.4299 1.60822 81.2092
lradius 110.011
lwrist 24.0352
lhand -21.7841 -2.37244
lfingers 7.12502
lthumb 4.61722 27.5572
rfemur -17.9667 0.110075 29.531
rtibia 64.365
rfoot -3.3162 -10.6054
rtoes -33.7906
lfemur -31.1834 -6.74233 -16.6782
ltibia 48.9702
lfoot -17.6654 10.4339
ltoes -16.3496
78
root 23.6811 14.9186 0.588506 -142.98 85.7967 -130.254
lowerback 19.324 -1.20969 -1.20925
upperback 9.87976 -1.04405 0.25532
thorax -0.145351 -0.262715 1.14955
lowerneck -8.90826 4.57129 6.61515
upperneck -0.148863 5.74238 -8.66961
head 2.04741 2.71222 -3.78455
rclavicle 1.68967e-014 1.35174e-014
rhumerus -68.952 23.3212 -87.9792
rradius 101.698
rwrist -33.5705
rhand -33.3497 20.2659
rfingers 7.12502
rthumb -6.55178 -9.61272
lclavicle 1.68967e-014 1.35174e-014
lhumerus -63.4467 2.05871 79.754
lradius 109.346
lwrist 24.9229
lhand -22.2306 -2.09314
lfingers 7.12502
lthumb 4.1861 27.8455
rfemur -19.3436 -1.52402 28.4525
rtibia 67.8292
rfoot -1.64731 -8.21245
rtoes -38.1617
lfemur -29.4551 -8.47817 -16.5488
ltibia 41.3154
lfoot -18.5947 9.97761
ltoes -9.96804
